<?xml version="1.0" encoding="UTF-8" standalone="no"?>
<!-- Created with Inkscape (http://www.inkscape.org/) -->

<svg
   xmlns:dc="http://purl.org/dc/elements/1.1/"
   xmlns:cc="http://creativecommons.org/ns#"
   xmlns:rdf="http://www.w3.org/1999/02/22-rdf-syntax-ns#"
   xmlns:svg="http://www.w3.org/2000/svg"
   xmlns="http://www.w3.org/2000/svg"
   xmlns:xlink="http://www.w3.org/1999/xlink"
   xmlns:sodipodi="http://sodipodi.sourceforge.net/DTD/sodipodi-0.dtd"
   xmlns:inkscape="http://www.inkscape.org/namespaces/inkscape"
   width="1024"
   height="1024"
   id="svg2"
   version="1.1"
   inkscape:version="0.91 r13725"
   sodipodi:docname="icon-windows.svg"
   inkscape:export-filename="C:\Users\alber\WebstormProjects\ScoreScope\res\icon\windows\Square310x310Logo.scale-400.png"
   inkscape:export-xdpi="108.98"
   inkscape:export-ydpi="108.98">
  <defs
     id="defs4">
    <linearGradient
       inkscape:collect="always"
       id="background-3">
      <stop
         id="stop6473"
         offset="0"
         style="stop-color:#2b4dec;stop-opacity:1" />
      <stop
         id="stop6471"
         offset="1"
         style="stop-color:#2b388a;stop-opacity:1" />
    </linearGradient>
    <linearGradient
       inkscape:collect="always"
       xlink:href="#background-3"
       id="linearGradient6461"
       x1="512.5"
       y1="-2.0624776"
       x2="513.0625"
       y2="1027.625"
       gradientUnits="userSpaceOnUse" />
  </defs>
  <sodipodi:namedview
     id="base"
     pagecolor="#000000"
     bordercolor="#666666"
     borderopacity="1.0"
     inkscape:pageopacity="0"
     inkscape:pageshadow="2"
     inkscape:zoom="0.70710678"
     inkscape:cx="495.99537"
     inkscape:cy="496.52204"
     inkscape:document-units="px"
     inkscape:current-layer="layer3"
     showgrid="false"
     showguides="true"
     inkscape:guide-bbox="true"
     fit-margin-top="0"
     fit-margin-left="0"
     fit-margin-right="0"
     fit-margin-bottom="0"
     inkscape:window-width="1280"
     inkscape:window-height="961"
     inkscape:window-x="1272"
     inkscape:window-y="-8"
     inkscape:window-maximized="1"
     inkscape:showpageshadow="false"
     borderlayer="true"
     showborder="false"
     inkscape:snap-global="false"
     inkscape:snap-page="false"
     inkscape:snap-bbox="true">
    <sodipodi:guide
       orientation="0,1"
       position="-10.429825,956.71547"
       id="guide3101" />
    <sodipodi:guide
       orientation="1,0"
       position="956.5625,59.8125"
       id="guide3103" />
    <sodipodi:guide
       orientation="0,1"
       position="1246.875,315.625"
       id="guide3105" />
    <sodipodi:guide
       orientation="1,0"
       position="67.351921,64.523494"
       id="guide3107" />
    <sodipodi:guide
       orientation="0,1"
       position="961.5,67.5"
       id="guide3109" />
    <sodipodi:guide
       orientation="1,0"
       position="319.08193,67.707547"
       id="guide3111" />
    <sodipodi:guide
       orientation="1,0"
       position="511.68014,67.707547"
       id="guide3113" />
    <sodipodi:guide
       orientation="1,0"
       position="706.1875,64.734375"
       id="guide3115" />
    <sodipodi:guide
       orientation="0,1"
       position="-21.213203,1024"
       id="guide3117" />
    <sodipodi:guide
       orientation="0,1"
       position="0,0"
       id="guide3119" />
    <sodipodi:guide
       orientation="1,0"
       position="0,1042.6289"
       id="guide3121" />
    <sodipodi:guide
       orientation="0,1"
       position="987.49996,706.24997"
       id="guide3123" />
    <sodipodi:guide
       orientation="1,0"
       position="1029.6875,456.24998"
       id="guide3125" />
    <sodipodi:guide
       orientation="0.01217934,0.99992583"
       position="-27.223611,512.65241"
       id="guide3127" />
    <inkscape:grid
       type="xygrid"
       id="grid4235"
       empspacing="5"
       visible="true"
       enabled="true"
       snapvisiblegridlinesonly="true" />
    <sodipodi:guide
       orientation="1,0"
       position="511.68014,430.8932"
       id="guide4003" />
  </sodipodi:namedview>
  <metadata
     id="metadata7">
    <rdf:RDF>
      <cc:Work
         rdf:about="">
        <dc:format>image/svg+xml</dc:format>
        <dc:type
           rdf:resource="http://purl.org/dc/dcmitype/StillImage" />
        <dc:title></dc:title>
      </cc:Work>
    </rdf:RDF>
  </metadata>
  <g
     inkscape:groupmode="layer"
     id="layer5"
     inkscape:label="Background"
     style="display:none"
     sodipodi:insensitive="true">
    <rect
       style="color:#000000;display:inline;overflow:visible;visibility:visible;fill:url(#linearGradient6461);fill-opacity:1;fill-rule:nonzero;stroke:none;stroke-width:2;marker:none;enable-background:accumulate"
       id="rect4108"
       width="1024"
       height="1024"
       x="0"
       y="1.5099033e-014" />
  </g>
  <g
     inkscape:groupmode="layer"
     id="layer3"
     inkscape:label="Layer"
     style="display:inline">
    <circle
       style="display:inline;fill:none;fill-opacity:1;stroke:#ffffff;stroke-width:75;stroke-linecap:round;stroke-linejoin:round;stroke-miterlimit:4;stroke-dasharray:none;stroke-opacity:1"
       id="path4220"
       cx="512"
       cy="512"
       r="360.89584" />
    <rect
       style="display:inline;fill:#f1eb97;fill-opacity:1;stroke:#000000;stroke-width:1.00796175;stroke-miterlimit:4;stroke-dasharray:none;stroke-opacity:1"
       id="rect4199"
       width="354.9939"
       height="508.22708"
       x="452.33658"
       y="112.39816"
       transform="matrix(0.96773536,0.2519688,-0.26605477,0.96395791,0,0)" />
    <path
       style="display:inline;fill:none;fill-opacity:1;fill-rule:evenodd;stroke:#000000;stroke-width:1.0615437;stroke-linecap:butt;stroke-linejoin:miter;stroke-miterlimit:4;stroke-dasharray:none;stroke-opacity:1"
       d="M 448.82597,230.26733 314.91733,722.98362"
       id="path4244"
       inkscape:connector-curvature="0" />
    <path
       style="display:inline;fill:none;fill-opacity:1;stroke:none;stroke-width:2;stroke-miterlimit:4;stroke-dasharray:none"
       id="path4246"
       sodipodi:type="arc"
       sodipodi:cx="460.83301"
       sodipodi:cy="340.81195"
       sodipodi:rx="14.528893"
       sodipodi:ry="10.738747"
       sodipodi:start="0"
       sodipodi:end="1.4722791"
       d="m 475.3619,340.81195 a 14.528893,10.738747 0 0 1 -13.09986,10.68668 l -1.42903,-10.68668 z" />
    <path
       style="display:inline;fill:none;fill-opacity:1;stroke:none;stroke-width:2;stroke-miterlimit:4;stroke-dasharray:none"
       id="path4248"
       sodipodi:type="arc"
       sodipodi:cx="491.15424"
       sodipodi:cy="491.15451"
       sodipodi:rx="44.85006"
       sodipodi:ry="67.590919"
       sodipodi:start="0"
       sodipodi:end="1.4722795"
       d="m 536.0043,491.15451 a 44.85006,67.590919 0 0 1 -40.43872,67.26318 l -4.41134,-67.26318 z" />
    <circle
       style="display:inline;fill:none;fill-opacity:1;stroke:#000000;stroke-width:1.43681896;stroke-miterlimit:4;stroke-dasharray:none;stroke-opacity:1"
       id="path4254"
       cx="410.92944"
       cy="284.59137"
       r="14.18966" />
    <circle
       style="display:inline;fill:none;fill-opacity:1;stroke:#000000;stroke-width:1.43681896;stroke-miterlimit:4;stroke-dasharray:none;stroke-opacity:1"
       id="path4254-7"
       cx="365.44769"
       cy="452.62125"
       r="14.18966" />
    <circle
       style="display:inline;fill:none;fill-opacity:1;stroke:#000000;stroke-width:1.43681896;stroke-miterlimit:4;stroke-dasharray:none;stroke-opacity:1"
       id="path4254-7-6"
       cx="309.85886"
       cy="657.289"
       r="14.18966" />
    <path
       style="display:inline;fill:none;fill-rule:evenodd;stroke:#000000;stroke-width:0.80856454px;stroke-linecap:butt;stroke-linejoin:miter;stroke-opacity:1"
       d="M 434.9337,290.90834 734.35522,365.4479"
       id="path4294"
       inkscape:connector-curvature="0" />
    <path
       style="display:inline;fill:none;fill-rule:evenodd;stroke:#000000;stroke-width:0.80856454px;stroke-linecap:butt;stroke-linejoin:miter;stroke-opacity:1"
       d="m 424.82666,317.43939 303.21163,74.53949"
       id="path4296"
       inkscape:connector-curvature="0" />
    <path
       style="display:inline;fill:none;fill-rule:evenodd;stroke:#000000;stroke-width:0.80856454px;stroke-linecap:butt;stroke-linejoin:miter;stroke-opacity:1"
       d="m 415.98296,346.49715 308.2652,73.27619"
       id="path4298"
       inkscape:connector-curvature="0" />
    <path
       style="display:inline;fill:none;fill-rule:evenodd;stroke:#000000;stroke-width:0.80856454px;stroke-linecap:butt;stroke-linejoin:miter;stroke-opacity:1"
       d="m 408.40268,374.29159 307.00181,73.27609"
       id="path4300"
       inkscape:connector-curvature="0" />
    <path
       style="display:inline;fill:none;fill-rule:evenodd;stroke:#000000;stroke-width:0.80856454px;stroke-linecap:butt;stroke-linejoin:miter;stroke-opacity:1"
       d="m 403.34916,400.82258 304.47504,73.2761"
       id="path4302"
       inkscape:connector-curvature="0" />
    <path
       style="display:inline;fill:none;fill-rule:evenodd;stroke:#000000;stroke-width:0.80856454px;stroke-linecap:butt;stroke-linejoin:miter;stroke-opacity:1"
       d="m 393.2421,429.88039 305.73842,73.27609"
       id="path4304"
       inkscape:connector-curvature="0" />
    <g
       style="display:inline"
       id="g4328"
       transform="matrix(1.4272786,0,0,1.4272786,-430.56589,32.302497)">
      <g
         transform="matrix(0.72257285,0.17986372,-0.32237997,0.66743306,346.48674,-68.650139)"
         id="g4221">
        <path
           style="fill:#f82525;fill-opacity:1;stroke:none;stroke-width:0;stroke-miterlimit:4;stroke-dasharray:none"
           id="path4205"
           d="m 611.57009,354.24017 c 0.0428,5.59099 -1.46191,10.87282 -3.27156,16.10216 -5.10473,13.12144 -10.27332,26.19499 -14.32644,39.68553 -3.76854,10.45065 -4.66083,21.54981 -6.8626,32.34737 -1.23301,6.04673 -2.66426,10.76094 -4.3253,16.72476 -3.27286,12.48283 -7.69713,24.63355 -12.43671,36.62543 -1.74159,4.09339 -3.87483,7.99504 -5.84763,11.97386 -1.13579,2.18815 -2.23118,4.36426 -3.64772,6.38508 -0.25978,0.35008 -0.51955,0.70015 -0.77933,1.05023 0,0 -14.1598,6.01853 -14.1598,6.01853 l 0,0 c 0.28164,-0.30151 0.56328,-0.60302 0.84492,-0.90453 1.31246,-2.05691 2.66671,-4.00051 3.76944,-6.18729 1.85846,-4.15874 4.50141,-7.95527 6.34886,-12.13318 5.29769,-11.93297 9.81013,-24.24802 13.30626,-36.82864 1.52927,-5.60324 3.05726,-10.84018 4.23297,-16.52591 2.24309,-10.8476 3.17114,-21.99146 6.84767,-32.52414 3.89355,-13.36578 8.82062,-26.34009 13.60632,-39.40622 1.63739,-4.98732 3.23407,-10.06623 2.93541,-15.3893 0,0 13.76524,-7.01374 13.76524,-7.01374 z"
           inkscape:connector-curvature="0" />
        <path
           style="fill:#f82525;fill-opacity:1;stroke:none;stroke-width:0;stroke-miterlimit:4;stroke-dasharray:none"
           id="path4207"
           d="m 615.01604,355.18043 c 4.55775,7.44164 9.07191,14.86715 13.13033,22.6032 9.05293,16.46972 14.72644,34.38291 20.93992,52.03143 5.35822,16.4459 11.37999,32.65022 17.96865,48.63833 3.16995,6.20328 5.86306,12.76878 9.93659,18.46175 1.54672,2.01391 3.14255,3.96262 4.54666,6.08652 1.73337,1.50723 2.08021,3.87149 3.49195,5.57848 1.70053,1.9368 2.93936,4.18502 4.21196,6.41042 0.46893,1.16307 1.13486,2.2247 1.72305,3.32809 0,0 -13.36147,7.65114 -13.36147,7.65114 l 0,0 c -0.57714,-1.0915 -1.23187,-2.14399 -1.68795,-3.29503 -1.23208,-2.16867 -2.4452,-4.33704 -4.12803,-6.19807 -1.36069,-1.81021 -1.88426,-4.07266 -3.55389,-5.68383 -1.4013,-2.10814 -2.97801,-4.0688 -4.40855,-6.15167 -3.83678,-5.99755 -6.29691,-12.76419 -9.35877,-19.16184 -6.2025,-16.20093 -11.86906,-32.59611 -17.29531,-49.07252 -6.26035,-17.52603 -12.10489,-35.29706 -21.48243,-51.47901 -4.20364,-7.586 -8.81633,-14.87538 -13.95844,-21.86298 0,0 13.28573,-7.88441 13.28573,-7.88441 z"
           inkscape:connector-curvature="0" />
        <path
           style="fill:#f82525;fill-opacity:1;stroke:none;stroke-width:0;stroke-miterlimit:4;stroke-dasharray:none"
           id="path4209"
           d="m 594.85644,430.40749 c 4.45684,0.0943 8.91536,0.0757 13.37297,0.0692 3.53241,0.0986 6.9728,-0.84774 10.46624,-1.25887 3.26112,-0.3358 6.54293,-0.31564 9.81698,-0.33854 3.38735,-0.0173 6.77476,-0.0142 10.16214,-0.013 3.14749,0.002 6.29498,0.002 9.44247,0.003 0.52036,5e-5 1.04072,10e-5 1.56108,1.5e-4 0,0 -12.40331,9.01123 -12.40331,9.01123 l 0,0 c -0.52035,-1.2e-4 -1.04069,-2.4e-4 -1.56104,-3.6e-4 -3.14523,-10e-4 -6.29047,-0.003 -9.4357,-0.009 -3.37436,-0.007 -6.7488,-0.0201 -10.12311,0.006 -3.25636,0.042 -6.52057,0.10238 -9.75531,0.51626 -3.46909,0.48013 -6.92456,1.22043 -10.45,1.00575 -4.52114,-0.007 -9.04311,-0.0234 -13.56352,0.0692 0,0 12.47011,-9.06007 12.47011,-9.06007 z"
           inkscape:connector-curvature="0" />
        <path
           style="fill:#f82525;fill-opacity:1;stroke:none;stroke-width:0;stroke-miterlimit:4;stroke-dasharray:none"
           id="path4217"
           d="m 662.07755,413.94035 c 3.05885,-7.84323 3.76816,-16.4962 4.6852,-24.80062 0.81426,-11.93949 2.42056,-23.79935 3.6313,-35.70016 0,0 13.25563,-6.56157 13.25563,-6.56157 l 0,0 c -1.56398,11.93989 -3.29911,23.86782 -4.06812,35.89439 -0.78461,8.28736 -1.31207,16.7094 -3.41157,24.7921 0,0 -14.09244,6.37586 -14.09244,6.37586 z"
           inkscape:connector-curvature="0" />
        <path
           style="fill:#f82525;fill-opacity:1;stroke:none;stroke-width:0;stroke-miterlimit:4;stroke-dasharray:none"
           id="path4219"
           d="m 654.23144,375.72 c 16.78122,0.43135 33.52084,1.8068 50.27501,2.79869 4.08499,0.20836 8.16998,0.41672 12.25496,0.62507 0,0 -10.82891,7.77468 -10.82891,7.77468 l 0,0 c -4.02727,-0.24991 -8.05454,-0.49983 -12.0818,-0.74974 -17.33996,-0.94051 -34.71769,-2.04473 -52.08938,-1.38864 0,0 12.47012,-9.06006 12.47012,-9.06006 z"
           inkscape:connector-curvature="0" />
      </g>
      <path
         inkscape:connector-curvature="0"
         d="m 666.25367,261.35291 c -3.83712,0.0324 -7.71594,-0.36139 -11.52218,0.20036 -2.93384,0.82199 -6.08241,0.62132 -8.98307,1.48665 -2.31286,0.66453 -4.72938,1.39102 -6.77882,2.68099 -0.34596,0.17308 -1.37298,0.71252 -1.03789,0.51922 4.07811,-2.35246 8.16119,-4.6967 12.26859,-6.99765 0.32798,-0.18373 -0.60147,0.45406 -0.9261,0.64364 -4.71641,2.75422 -9.51269,5.37207 -14.19379,8.18588 -4.03082,2.42292 8.15074,-4.6946 12.24257,-7.013 0.33175,-0.18797 -0.64053,0.41387 -0.96079,0.62081 -6.95251,4.76036 -14.27563,8.95022 -21.8144,12.73407 -0.55762,0.32375 -1.10705,0.66204 -1.67286,0.97124 -1.11069,0.60698 -2.22049,1.21562 -3.33526,1.81507 -0.54259,0.29177 -2.18597,1.1355 -1.65363,0.82542 17.15348,-9.99162 14.91269,-8.64076 10.34747,-5.85181 -41.37262,23.49407 -0.24645,0.15806 -2.46106,1.3524 -4.88028,2.63194 -9.59466,5.56414 -14.47564,8.19479 -4.03568,2.17506 15.90397,-9.12923 11.93907,-6.82768 -14.42774,8.37503 -9.15196,6.57715 -15.87993,8.72175 3.92851,-2.22116 7.84883,-4.45688 11.78553,-6.6635 0.47157,-0.26432 -0.92125,0.56621 -1.38954,0.83629 -4.83183,2.78667 -9.70217,5.50691 -14.51057,8.33382 -3.92938,2.31012 7.9025,-4.54524 11.87333,-6.78336 0.0517,-0.0291 -0.6804,0.43719 -2.42084,1.54686 -2.56708,1.42271 -4.86465,3.24005 -7.30639,4.85512 -2.1074,1.30614 -3.9319,2.94724 -5.70388,4.66273 -4.92838,4.4108 -10.807,6.67209 -16.70565,10.19328 -3.93848,2.35106 15.88427,-9.18171 11.93712,-6.84522 -13.60683,8.05448 -9.28693,6.29792 -15.60819,8.76012 -5.33633,3.34768 1.88531,-1.20393 11.15251,-6.28692 0.33724,-0.18497 -0.59583,0.4868 -0.88556,0.73979 -0.83387,0.72814 -1.58281,1.53784 -2.35497,2.32925 -1.63852,1.53316 -2.81865,3.42731 -4.10332,5.24631 -1.45068,1.6958 -2.7396,3.48669 -4.00647,5.31997 -1.55206,1.73974 -2.43465,3.82397 -3.43669,5.89172 -1.3475,2.04247 -2.30154,4.11231 -2.78682,6.51229 -0.44209,2.94049 -0.43445,5.92385 -0.4536,8.89025 0.1367,2.82796 -0.63908,5.57009 -1.055,8.34381 -0.20421,2.80413 -0.48581,5.55256 -1.09486,8.2988 -0.63293,2.77165 -0.78718,5.6134 -0.89213,8.44445 0.0204,2.99934 -0.27876,6.02861 0.0828,9.01282 0.51677,2.75772 1.93103,5.32802 3.32277,7.74503 1.18012,2.52579 2.55608,5.00091 4.38894,7.11341 1.46589,1.93954 3.56536,3.1131 5.15217,4.96595 1.61398,1.84988 3.76109,2.99426 5.74553,4.35894 1.50161,1.77675 3.56367,2.74641 5.58935,3.78714 2.47103,0.71579 4.77611,1.71048 6.93683,3.11591 2.66352,1.53712 5.41636,2.86134 8.20115,4.16396 3.70346,1.58567 7.24673,3.39628 11.18738,4.32701 3.04549,1.12108 6.2149,1.6862 9.43323,1.97991 3.00306,0.86502 6.09042,1.28943 9.19666,1.54432 3.15293,0.2082 6.31444,0.20944 9.47275,0.2165 3.08788,0.12658 6.22,-0.29604 9.27102,0.25064 2.66934,0.68552 5.39848,0.98871 8.14158,1.16131 2.88474,0.43542 5.57002,-0.12683 8.36818,-0.69669 5.70614,-2.26416 16.17584,-8.67117 -6.89421,4.4837 5.69574,-3.96023 -3.49354,2.39044 15.1216,-8.83559 4.02683,-2.42842 -8.14923,4.69489 -12.24076,7.01264 -0.33202,0.18808 0.62927,-0.43341 0.9606,-0.62272 4.7465,-2.71205 9.45632,-5.4917 14.2712,-8.08041 4.13675,-2.22411 -8.15751,4.65755 -12.23626,6.98633 37.05281,-21.32738 2.88613,-1.65864 2.10613,-1.21891 -0.36744,0.20715 0.70196,-0.46873 1.03915,-0.72216 1.03259,-0.77607 2.0331,-1.55896 3.10235,-2.28822 1.97507,-1.2604 3.64875,-2.91021 5.50892,-4.31578 5.33198,-4.18914 11.38668,-6.79959 17.21744,-10.53453 3.90329,-2.5003 -8.02903,4.63521 -12.0617,6.92098 -0.37124,0.21042 0.71715,-0.46267 1.07573,-0.694 1.97016,-1.26822 3.79576,-2.75276 5.43047,-4.42887 1.92034,-2.03591 4.25562,-3.60714 6.45303,-5.32126 2.01866,-1.71447 4.23652,-3.16704 6.34646,-4.76354 5.62158,-4.10506 12.21964,-9.56345 18.67312,-10.76689 -4.35953,2.45783 -8.71907,4.91566 -13.0786,7.3735 0.11255,-5.3e-4 0.26028,0.0802 0.33766,-0.002 0.31178,-0.32933 0.2875,-0.87655 0.55709,-1.24122 0.32316,-0.43712 0.76465,-0.77306 1.13598,-1.17008 1.9406,-1.06695 3.10809,-2.55873 4.30258,-4.37117 1.33972,-1.85178 2.35473,-3.88779 3.93404,-5.55221 1.5959,-1.54894 3.28672,-2.94766 4.62606,-4.73282 1.28689,-2.13988 3.29488,-3.59301 5.02845,-5.32153 1.326,-1.96561 2.6924,-3.92328 3.92157,-5.95236 0.81354,-2.20362 2.02286,-4.19467 3.1556,-6.2358 1.16756,-2.43984 1.30614,-5.16287 1.44116,-7.81822 -0.0515,-2.94664 0.12468,-5.82278 0.6941,-8.71195 0.81863,-2.40982 1.67162,-4.75231 2.08867,-7.27386 0.38198,-2.96292 0.38886,-5.95678 0.41094,-8.93912 0.01,-3.12695 -0.002,-6.25393 -0.007,-9.38088 0.23912,-2.80704 -0.62642,-5.10936 -2.1023,-7.41077 -1.30737,-2.11367 -2.60469,-4.22391 -3.85321,-6.37659 -1.21441,-1.8361 -2.7936,-3.35514 -4.2222,-5.01165 -1.61072,-1.43516 -2.88404,-3.2148 -4.74832,-4.3379 -2.23836,-1.38389 -4.70903,-2.14586 -5.72975,-4.73193 -0.49248,-2.07701 -2.08399,-3.1942 -3.77084,-4.31941 -2.05721,-1.10233 -4.11379,-2.17772 -6.1941,-3.24293 -2.41343,-1.04584 -5.06474,-1.16268 -7.65429,-1.28437 -3.07858,-0.0964 -6.15934,-0.074 -9.23899,-0.0665 -3.09055,-0.11659 -6.22575,0.30309 -9.27936,-0.2442 -2.67069,-0.68627 -5.40119,-0.99033 -8.14577,-1.16327 -2.7141,-0.0378 -5.29545,-0.91492 -7.76905,-1.94803 -1.84399,-0.3462 -3.29036,-1.50201 -4.99652,-2.13983 -1.0384,-0.16359 -1.93369,-0.72723 -2.88876,-1.135 0,0 12.83274,-8.55392 12.83274,-8.55392 l 0,0 c 0.95834,0.40986 1.92018,0.80847 2.91728,1.11748 1.62269,0.77254 3.20376,1.6195 4.93508,2.14934 2.37764,0.9481 4.88482,1.5247 7.45401,1.57893 2.76567,0.23305 5.49199,0.67074 8.20997,1.23098 3.0341,0.25756 6.08928,0.028 9.13126,0.0943 3.10269,-0.004 6.20795,-0.0248 9.30766,0.13334 2.76788,0.19974 5.56379,0.49006 8.06923,1.78668 2.11035,1.12567 4.26894,2.14853 6.305,3.41092 1.85836,1.36593 3.71845,2.77847 4.30249,5.13518 0.52705,2.16558 3.64575,2.56619 5.18303,3.88133 1.85547,1.34117 3.328,3.09164 4.9658,4.68066 1.52041,1.70645 3.1123,3.34917 4.3627,5.27655 1.23434,2.13416 2.50303,4.23514 3.79611,6.3316 1.61454,2.53224 2.71593,5.10834 2.47947,8.19703 0.005,3.12982 0.0145,6.25964 0.0135,9.38946 -0.01,3.0385 -0.006,6.08366 -0.28808,9.1119 -0.31003,2.55338 -0.81723,5.05133 -2.0435,7.3441 -0.56623,2.83703 -1.05078,5.59488 -0.82791,8.51416 -0.0925,2.81391 -0.17918,5.67925 -1.10896,8.36658 -0.94024,2.16071 -2.56481,3.94704 -3.13971,6.2771 -1.03216,2.24398 -2.76687,4.02545 -3.79873,6.27821 -1.48444,1.9878 -3.78602,3.06916 -5.02046,5.26239 -1.4655,1.69231 -2.61368,3.61386 -4.58496,4.82894 -0.24888,0.27656 -0.49775,0.55313 -0.74662,0.82969 -0.27639,0.22202 -0.58477,0.40923 -0.82916,0.66605 -1.05089,1.10435 -1.23841,2.79682 -2.48786,3.76658 -0.99879,1.83143 -1.96799,4.07888 -4.05773,4.81186 -7.80311,5.1305 11.84365,2.2764 -15.59366,10.29944 -4.91822,1.91464 -0.60252,0.26253 11.91073,-7.03492 0.33421,-0.1949 -0.68289,0.36667 -1.00337,0.58341 -1.98903,1.34517 0.15133,0.18383 -2.02242,1.27424 -0.34723,0.21142 -0.65787,0.47778 -0.98681,0.71667 -1.93427,1.82795 -4.28227,3.10139 -6.36005,4.75963 -2.02365,1.90174 -4.4611,3.26603 -6.51142,5.14615 -1.57874,1.83382 -3.3435,3.38009 -5.27175,4.83533 -8.7127,4.96416 -28.84886,16.67342 -3.34833,1.98576 3.33523,-1.92101 -6.47443,4.10107 -2.86898,2.29118 -2.11608,1.07836 -3.52751,3.01163 -5.57337,4.20655 -1.01133,0.82492 -2.15039,1.36854 -3.13696,2.22217 -0.33509,0.28994 -0.5759,0.69537 -0.95507,0.92467 -0.85544,0.5173 -33.91964,19.66272 -2.07844,1.2208 -47.31617,27.20198 8.3674,-5.01392 -3.02112,1.64475 -4.70682,2.752 -9.43684,5.46491 -14.11439,8.26637 -3.70517,2.21909 17.37408,-10.42916 11.22035,-6.47902 -6.08298,3.57567 -12.55754,8.50907 -19.70395,10.45173 -2.85381,0.55867 -5.69352,0.65669 -8.5938,0.34653 -2.76429,-0.23259 -5.48934,-0.66933 -8.20602,-1.22887 -3.03291,-0.25697 -6.08672,-0.0254 -9.12747,-0.10941 -3.18402,-0.0209 -6.37275,-0.0462 -9.54642,-0.33207 -3.10678,-0.32828 -6.16292,-0.89874 -9.2155,-1.55644 -3.25558,-0.40273 -6.42832,-1.13967 -9.5409,-2.18484 -3.92304,-1.13429 -7.49115,-3.04964 -11.27272,-4.55757 -2.9176,-1.20116 -5.66544,-2.71631 -8.40469,-4.27744 -2.21043,-1.26037 -4.58563,-2.06055 -6.93495,-3.00805 -2.03261,-1.11783 -4.07681,-2.18023 -5.66836,-3.91724 -2.13248,-1.37277 -4.23627,-2.79867 -5.93822,-4.70967 -1.63237,-1.78458 -3.81211,-2.96363 -5.18082,-4.99692 -1.81804,-2.24526 -3.26513,-4.76232 -4.49546,-7.37262 -1.45561,-2.60175 -3.00076,-5.31988 -3.61597,-8.24989 -0.45901,-3.05619 -0.13366,-6.16979 -0.17955,-9.25192 0.0752,-2.90371 0.17268,-5.82165 0.7328,-8.6806 0.58751,-2.72648 1.17107,-5.38092 1.16095,-8.1954 0.33991,-2.74092 1.16509,-5.41699 1.17386,-8.17732 0.006,-3.0343 -0.009,-6.07757 0.30705,-9.09914 0.34948,-2.48406 0.8642,-4.93422 2.58057,-6.87049 0.94585,-2.10762 1.68026,-4.41254 3.34478,-6.07629 1.16122,-1.9508 2.47662,-3.75046 3.9348,-5.47512 1.54033,-1.6483 2.32357,-3.84768 4.08401,-5.29441 4.56076,-5.88535 11.79563,-9.02239 18.33326,-12.3308 0.39571,-0.20065 1.56952,-0.82691 1.18712,-0.60194 -3.96907,2.33501 -15.93291,9.24309 -11.94914,6.93325 4.78101,-2.77209 9.50514,-5.64449 14.34086,-8.32 3.99165,-2.2085 -7.86248,4.62877 -11.80802,6.91863 -0.41992,0.24371 0.83768,-0.49408 1.23031,-0.77969 0.38149,-0.27751 0.72477,-0.60408 1.08716,-0.90612 1.92036,-1.56793 3.41146,-3.6377 5.65051,-4.81529 2.3094,-1.79162 4.80338,-3.4129 7.30543,-4.92085 1.38243,-0.94114 1.00151,-0.716 2.42343,-1.55074 47.79025,-28.05532 -8.52395,4.74406 4.02295,-2.46591 4.84768,-2.78568 9.71562,-5.53597 14.57342,-8.30395 0.46844,-0.21736 1.8492,-0.91598 1.40532,-0.65206 -3.94714,2.34695 -15.9498,9.10918 -11.92129,6.9048 4.85263,-2.65534 9.59618,-5.50534 14.39427,-8.258 -3.95329,2.30711 -15.87555,9.11809 -11.85988,6.92135 2.77815,-1.51978 31.89638,-18.51 2.49409,-1.37569 7.45921,-4.36912 14.87952,-8.80505 22.54036,-12.81288 5.70871,-2.84647 1.85752,-0.97411 -9.70121,5.83363 -0.53366,0.31431 1.0902,-0.58969 1.61579,-0.91734 1.25623,-0.78311 2.35359,-1.76901 3.603,-2.55944 5.31905,-3.02515 6.48373,-3.68216 15.09828,-8.82099 4.03095,-2.40458 -8.09761,4.74892 -12.16192,7.09667 -0.32321,0.18671 0.61607,-0.42258 0.93727,-0.61273 13.66766,-8.09161 9.30343,-5.82253 15.12698,-8.81765 2.27761,-0.95218 4.54746,-1.91034 6.99464,-2.34713 2.99983,-0.46551 6.02079,-0.80461 9.01898,-1.28677 3.91181,-0.23077 7.83493,-0.0267 11.7511,-0.17344 0,0 -12.49858,9.08075 -12.49858,9.08075 z"
         id="path4292"
         style="fill:#eb1414;fill-opacity:1;stroke:none;stroke-width:1.77699995;stroke-miterlimit:4;stroke-dasharray:none;stroke-opacity:1" />
    </g>
    <path
       style="display:inline;fill:none;fill-rule:evenodd;stroke:#000000;stroke-width:0.80856454px;stroke-linecap:butt;stroke-linejoin:miter;stroke-opacity:1"
       d="m 388.18858,457.67474 305.73843,73.2762"
       id="path4306"
       inkscape:connector-curvature="0" />
    <path
       style="display:inline;fill:none;fill-rule:evenodd;stroke:#000000;stroke-width:0.80856454px;stroke-linecap:butt;stroke-linejoin:miter;stroke-opacity:1"
       d="m 378.08152,486.73256 304.47504,74.53953"
       id="path4308"
       inkscape:connector-curvature="0" />
    <path
       style="display:inline;fill:none;fill-rule:evenodd;stroke:#000000;stroke-width:0.80856454px;stroke-linecap:butt;stroke-linejoin:miter;stroke-opacity:1"
       d="m 374.29136,512.00019 301.9483,75.8029"
       id="path4314"
       inkscape:connector-curvature="0" />
    <path
       style="display:inline;fill:none;fill-rule:evenodd;stroke:#000000;stroke-width:0.80856454px;stroke-linecap:butt;stroke-linejoin:miter;stroke-opacity:1"
       d="m 361.65755,544.84805 305.73842,77.06637"
       id="path4316"
       inkscape:connector-curvature="0" />
    <path
       style="display:inline;fill:none;fill-rule:evenodd;stroke:#000000;stroke-width:0.80856454px;stroke-linecap:butt;stroke-linejoin:miter;stroke-opacity:1"
       d="m 352.81388,577.69604 307.00179,73.27618"
       id="path4318"
       inkscape:connector-curvature="0" />
    <path
       style="display:inline;fill:none;fill-rule:evenodd;stroke:#000000;stroke-width:0.80856454px;stroke-linecap:butt;stroke-linejoin:miter;stroke-opacity:1"
       d="m 346.49696,608.0172 304.47506,73.2762"
       id="path4320"
       inkscape:connector-curvature="0" />
    <path
       style="display:inline;fill:none;fill-rule:evenodd;stroke:#000000;stroke-width:0.80856454px;stroke-linecap:butt;stroke-linejoin:miter;stroke-opacity:1"
       d="m 335.12655,643.39189 304.47502,69.48603"
       id="path4322"
       inkscape:connector-curvature="0" />
    <path
       style="display:inline;fill:none;fill-rule:evenodd;stroke:#000000;stroke-width:0.80856454px;stroke-linecap:butt;stroke-linejoin:miter;stroke-opacity:1"
       d="m 328.80963,667.39615 303.21165,72.01278"
       id="path4324"
       inkscape:connector-curvature="0" />
    <path
       style="display:inline;fill:none;fill-rule:evenodd;stroke:#000000;stroke-width:0.80856454px;stroke-linecap:butt;stroke-linejoin:miter;stroke-opacity:1"
       d="m 323.75609,692.66381 303.21165,70.74938"
       id="path4326"
       inkscape:connector-curvature="0" />
    <path
       style="display:inline;fill:none;fill-rule:evenodd;stroke:#ffffff;stroke-width:36.49721909;stroke-linecap:round;stroke-linejoin:miter;stroke-miterlimit:4;stroke-dasharray:none;stroke-opacity:1"
       d="m 177.94146,511.53803 232.64939,-1.60889"
       id="path4226"
       inkscape:connector-curvature="0" />
    <path
       style="display:inline;fill:none;fill-rule:evenodd;stroke:#ffffff;stroke-width:36.49721909;stroke-linecap:round;stroke-linejoin:miter;stroke-miterlimit:4;stroke-dasharray:none;stroke-opacity:1"
       d="m 849.82011,511.50582 -239.74038,0"
       id="path4228"
       inkscape:connector-curvature="0" />
    <path
       style="display:inline;fill:none;fill-rule:evenodd;stroke:#ffffff;stroke-width:36.49721909;stroke-linecap:round;stroke-linejoin:miter;stroke-miterlimit:4;stroke-dasharray:none;stroke-opacity:1"
       d="m 512.50416,168.61391 -1.56445,237.87687"
       id="path4230"
       inkscape:connector-curvature="0" />
    <path
       style="display:inline;fill:none;fill-rule:evenodd;stroke:#ffffff;stroke-width:36.49721909;stroke-linecap:round;stroke-linejoin:miter;stroke-miterlimit:4;stroke-dasharray:none;stroke-opacity:1"
       d="m 510.8262,841.01056 0,-229.54465"
       id="path4232"
       inkscape:connector-curvature="0" />
  </g>
  <g
     inkscape:label="BORDER"
     inkscape:groupmode="layer"
     id="layer1"
     transform="translate(50.25,211.52169)"
     style="display:none"
     sodipodi:insensitive="true">
    <path
       inkscape:connector-curvature="0"
       d="m 301.95446,-211.52169 319.59108,0 c 101.4156,0 152.12339,0 206.7084,17.25959 59.59748,21.69173 106.54481,68.63899 128.23654,128.236542 C 973.75,-11.44076 973.75,39.267072 973.75,140.68273 l 0,319.59116 c 0,101.41566 0,152.12349 -17.25952,206.70829 -21.69173,59.59758 -68.63906,106.54477 -128.23654,128.23654 -54.58501,17.25959 -105.2928,17.25959 -206.7084,17.25959 l -319.59108,0 c -101.4156,0 -152.12339,0 -206.708396,-17.25959 C 35.648581,773.52695 -11.298747,726.57976 -32.99048,666.98218 -50.25,612.39738 -50.25,561.68955 -50.25,460.27389 l 0,-319.59116 c 0,-101.415658 0,-152.12349 17.25952,-206.708254 21.691733,-59.597546 68.639061,-106.544846 128.236544,-128.236576 54.585006,-17.25959 105.292796,-17.25959 206.708396,-17.25959 l 0,0"
       id="path5"
       style="fill:none;stroke:#000000;stroke-opacity:1" />
  </g>
  <g
     inkscape:groupmode="layer"
     id="layer6"
     inkscape:label="MASK"
     style="display:none"
     sodipodi:insensitive="true">
    <path
       style="color:#000000;display:inline;overflow:visible;visibility:visible;fill:#ffffff;fill-opacity:1;fill-rule:nonzero;stroke:none;stroke-width:2;marker:none;enable-background:accumulate"
       d="m -0.03515625,708.40625 c 0.05564213,38.75762 0.61632351,71.02215 3.48917125,100.18549 0.8757813,8.89038 2.0231286,17.50673 3.364698,25.91301 2.7291509,17.10087 6.251639,30.63186 10.624705,44.6288 0.983104,3.14664 2.343873,6.00913 3.546782,8.89844 4.954414,11.90016 10.441772,22.62502 16.75229,32.23106 7.482354,11.38984 16.590926,23.44234 26.690428,33.79613 11.282296,11.56636 22.163363,20.60638 34.238258,28.7856 7.753914,5.2523 15.167714,9.80978 23.655414,13.91931 3.34329,1.61873 6.78353,3.25751 10.45545,4.87471 6.01057,2.6472 12.64725,5.2405 20.38236,7.4312 16.33865,4.6274 37.83594,9.5058 66.67436,11.7859 26.04947,2.0596 58.07248,3.2184 99.20801,3.1754 l -319.08192625,0 z"
       id="path4146"
       inkscape:connector-curvature="0"
       sodipodi:nodetypes="csssssssssssccc" />
    <path
       style="color:#000000;display:inline;overflow:visible;visibility:visible;fill:#ffffff;fill-opacity:1;fill-rule:nonzero;stroke:none;stroke-width:2;marker:none;enable-background:accumulate"
       d="m 1024,708.375 c -0.028,33.52476 -0.3641,57.51886 -2.1872,86.13032 -2.1429,33.63123 -7.6767,62.03085 -16.1313,85.82727 -5.1582,14.5187 -11.40374,27.32387 -18.62968,38.55822 -10.39312,16.15845 -22.65083,31.16786 -36.89519,44.46448 -6.86448,6.40775 -13.96935,11.81612 -21.91877,17.50161 -10.37402,7.41958 -20.2254,13.06198 -32.1818,18.6383 -10.69022,4.9858 -23.165,9.4996 -39.90567,13.451 -11.58454,2.7344 -25.21186,5.3376 -41.70422,7.0737 -27.23282,2.8667 -62.17789,3.4121 -108.25867,3.9801 L 1024,1024 Z"
       id="path4146-5"
       inkscape:connector-curvature="0"
       sodipodi:nodetypes="cssssssssccc" />
    <path
       style="color:#000000;display:inline;overflow:visible;visibility:visible;fill:#ffffff;fill-opacity:1;fill-rule:nonzero;stroke:none;stroke-width:2;marker:none;enable-background:accumulate"
       d="m 1023.9571,318.26274 c 0.1837,-39.14081 -0.2997,-73.55855 -3.476,-103.94061 -1.4113,-13.49969 -3.8539,-26.31006 -5.9548,-38.18792 -3.6187,-20.45841 -10.1174,-38.44655 -17.2973,-52.70888 -2.12747,-4.22606 -3.90726,-7.55456 -5.77779,-10.81658 -1.49793,-2.61224 -3.05404,-5.18185 -4.89348,-8.13563 -1.96035,-3.14791 -3.87346,-6.195884 -5.993,-9.197124 C 974.88453,87.232938 968.40279,79.35023 961.65509,72.082687 951.58996,61.242143 940.4011,51.100793 927.77306,42.698049 909.73264,30.693887 894.47219,21.390417 866.08729,13.614807 853.18652,10.080839 837.40303,6.7460486 817.42751,4.3881848 790.09127,1.1614792 754.65731,0.08073128 706.1875,0 L 1024,0 Z"
       id="path4146-5-3"
       inkscape:connector-curvature="0"
       sodipodi:nodetypes="cssssssssssccc" />
    <path
       style="color:#000000;display:inline;overflow:visible;visibility:visible;fill:#ffffff;fill-opacity:1;fill-rule:nonzero;stroke:none;stroke-width:2;marker:none;enable-background:accumulate"
       d="M 0,318.48 C 0.04438432,264.21497 1.9515494,215.42652 8.7981727,178.4577 14.754939,146.29372 24.640519,123.97857 37.889606,103.37989 53.29125,79.434582 73.01483,58.195063 97.250401,42.030991 111.80438,32.324119 124.48551,25.310001 143.39137,18.055461 153.25339,14.271217 164.74156,11.469151 178.08885,8.8727346 208.3231,2.9913388 250.69975,-0.29260813 319.08193,0 L 0,0 Z"
       id="path4146-5-3-7"
       inkscape:connector-curvature="0"
       sodipodi:nodetypes="csssssccc" />
  </g>
  <g
     inkscape:groupmode="layer"
     id="layer4"
     inkscape:label="FULL MASK to BG"
     style="display:none"
     sodipodi:insensitive="true">
    <g
       id="g3108"
       transform="matrix(0.5649724,0,0,0.5649724,445.54508,-1009.2323)"
       style="fill:#ffffff">
      <path
         style="fill:#ffffff;fill-opacity:1"
         d="m -255.18484,3598.5738 c -65.89075,-0.4253 -133.31625,-3.6429 -171.28383,-8.1738 -35.62761,-4.2516 -75.24646,-12.6237 -101.97363,-21.5486 -19.91256,-6.6493 -47.54459,-19.4411 -66.12352,-30.6108 -37.44793,-22.5137 -72.20796,-52.2487 -98.54251,-84.2969 -24.29731,-29.5689 -41.20817,-56.8511 -55.47181,-89.4924 -6.61929,-15.1478 -8.38704,-19.8689 -11.92879,-31.8579 -16.20259,-54.8465 -23.54268,-107.7838 -26.58122,-191.706 -1.42838,-39.4507 -1.67596,-120.9647 -1.45114,-477.7704 0.16145,-256.2384 0.41117,-371.6315 0.83443,-385.5878 4.03548,-133.0627 14.45033,-200.8155 39.80624,-258.9554 22.87778,-52.4577 63.32922,-104.9173 108.81811,-141.1212 12.25925,-9.757 31.66981,-22.9097 46.90669,-31.7844 24.79601,-14.4423 54.99637,-27.5472 78.82329,-34.2039 41.36425,-11.5562 93.35603,-18.869 158.31851,-22.2681 28.5354,-1.493 42.80966,-1.8693 92.94472,-2.45 66.71195,-0.7727 774.97059,-0.3507 803.30789,0.4786 74.58713,2.1828 111.22328,5.1416 152.96045,12.3533 34.90069,6.0305 66.10255,14.5431 92.14805,25.1403 28.90007,11.7586 67.93807,35.6951 94.27249,57.8041 24.08118,20.2172 52.39634,51.696 69.50417,77.2697 27.40876,40.9722 44.92544,81.5642 54.48975,126.2709 2.0427,9.5481 7.5352,40.5742 9.5433,53.9079 4.7447,31.5043 7.3924,66.4897 8.9033,117.6415 0.8272,28.0023 1.2273,742.0895 0.4567,814.9924 -0.6825,64.5731 -1.8558,98.6886 -4.564,132.7029 -5.9213,74.3703 -21.87168,136.2374 -47.80384,185.4176 -7.83137,14.852 -18.80155,31.9295 -30.54535,47.5505 -23.00313,30.5976 -46.50391,54.389 -74.58963,75.5123 -48.63111,36.5753 -94.65909,56.7768 -158.32303,69.4872 -51.86283,10.3544 -93.05381,13.1537 -222.7503,15.1381 -27.97184,0.4279 -676.86617,0.5685 -740.10549,0.1603 z"
         id="path3124"
         inkscape:connector-curvature="0" />
      <path
         style="fill:#ffffff;fill-opacity:1"
         d="m -255.18484,3598.5738 c -65.89075,-0.4253 -133.31625,-3.6429 -171.28383,-8.1738 -35.62761,-4.2516 -75.24646,-12.6237 -101.97363,-21.5486 -19.91256,-6.6493 -47.54459,-19.4411 -66.12352,-30.6108 -37.44793,-22.5137 -72.20796,-52.2487 -98.54251,-84.2969 -24.29731,-29.5689 -41.20817,-56.8511 -55.47181,-89.4924 -6.61929,-15.1478 -8.38704,-19.8689 -11.92879,-31.8579 -16.20259,-54.8465 -23.54268,-107.7838 -26.58122,-191.706 -1.42838,-39.4507 -1.67596,-120.9647 -1.45114,-477.7704 0.16145,-256.2384 0.41117,-371.6315 0.83443,-385.5878 4.03548,-133.0627 14.45033,-200.8155 39.80624,-258.9554 22.87778,-52.4577 63.32922,-104.9173 108.81811,-141.1212 12.25925,-9.757 31.66981,-22.9097 46.90669,-31.7844 24.79601,-14.4423 54.99637,-27.5472 78.82329,-34.2039 41.36425,-11.5562 93.35603,-18.869 158.31851,-22.2681 28.5354,-1.493 42.80966,-1.8693 92.94472,-2.45 66.71195,-0.7727 774.97059,-0.3507 803.30789,0.4786 74.58713,2.1828 111.22328,5.1416 152.96045,12.3533 34.90069,6.0305 66.10255,14.5431 92.14805,25.1403 28.90007,11.7586 67.93807,35.6951 94.27249,57.8041 24.08118,20.2172 52.39634,51.696 69.50417,77.2697 27.40876,40.9722 44.92544,81.5642 54.48975,126.2709 2.0427,9.5481 7.5352,40.5742 9.5433,53.9079 4.7447,31.5043 7.3924,66.4897 8.9033,117.6415 0.8272,28.0023 1.2273,742.0895 0.4567,814.9924 -0.6825,64.5731 -1.8558,98.6886 -4.564,132.7029 -5.9213,74.3703 -21.87168,136.2374 -47.80384,185.4176 -7.83137,14.852 -18.80155,31.9295 -30.54535,47.5505 -23.00313,30.5976 -46.50391,54.389 -74.58963,75.5123 -48.63111,36.5753 -94.65909,56.7768 -158.32303,69.4872 -51.86283,10.3544 -93.05381,13.1537 -222.7503,15.1381 -27.97184,0.4279 -676.86617,0.5685 -740.10549,0.1603 z"
         id="path3122"
         inkscape:connector-curvature="0" />
      <path
         style="fill:#ffffff;fill-opacity:1"
         d="m -255.18484,3598.5738 c -65.89075,-0.4253 -133.31625,-3.6429 -171.28383,-8.1738 -35.62761,-4.2516 -75.24646,-12.6237 -101.97363,-21.5486 -19.91256,-6.6493 -47.54459,-19.4411 -66.12352,-30.6108 -37.44793,-22.5137 -72.20796,-52.2487 -98.54251,-84.2969 -24.29731,-29.5689 -41.20817,-56.8511 -55.47181,-89.4924 -6.61929,-15.1478 -8.38704,-19.8689 -11.92879,-31.8579 -16.20259,-54.8465 -23.54268,-107.7838 -26.58122,-191.706 -1.42838,-39.4507 -1.67596,-120.9647 -1.45114,-477.7704 0.16145,-256.2384 0.41117,-371.6315 0.83443,-385.5878 4.03548,-133.0627 14.45033,-200.8155 39.80624,-258.9554 22.87778,-52.4577 63.32922,-104.9173 108.81811,-141.1212 12.25925,-9.757 31.66981,-22.9097 46.90669,-31.7844 24.79601,-14.4423 54.99637,-27.5472 78.82329,-34.2039 41.36425,-11.5562 93.35603,-18.869 158.31851,-22.2681 28.5354,-1.493 42.80966,-1.8693 92.94472,-2.45 66.71195,-0.7727 774.97059,-0.3507 803.30789,0.4786 74.58713,2.1828 111.22328,5.1416 152.96045,12.3533 34.90069,6.0305 66.10255,14.5431 92.14805,25.1403 28.90007,11.7586 67.93807,35.6951 94.27249,57.8041 24.08118,20.2172 52.39634,51.696 69.50417,77.2697 27.40876,40.9722 44.92544,81.5642 54.48975,126.2709 2.0427,9.5481 7.5352,40.5742 9.5433,53.9079 4.7447,31.5043 7.3924,66.4897 8.9033,117.6415 0.8272,28.0023 1.2273,742.0895 0.4567,814.9924 -0.6825,64.5731 -1.8558,98.6886 -4.564,132.7029 -5.9213,74.3703 -21.87168,136.2374 -47.80384,185.4176 -7.83137,14.852 -18.80155,31.9295 -30.54535,47.5505 -23.00313,30.5976 -46.50391,54.389 -74.58963,75.5123 -48.63111,36.5753 -94.65909,56.7768 -158.32303,69.4872 -51.86283,10.3544 -93.05381,13.1537 -222.7503,15.1381 -27.97184,0.4279 -676.86617,0.5685 -740.10549,0.1603 z"
         id="path3120"
         inkscape:connector-curvature="0" />
      <path
         style="fill:#ffffff;fill-opacity:1"
         d="m -255.18484,3598.5738 c -65.89075,-0.4253 -133.31625,-3.6429 -171.28383,-8.1738 -35.62761,-4.2516 -75.24646,-12.6237 -101.97363,-21.5486 -19.91256,-6.6493 -47.54459,-19.4411 -66.12352,-30.6108 -37.44793,-22.5137 -72.20796,-52.2487 -98.54251,-84.2969 -24.29731,-29.5689 -41.20817,-56.8511 -55.47181,-89.4924 -6.61929,-15.1478 -8.38704,-19.8689 -11.92879,-31.8579 -16.20259,-54.8465 -23.54268,-107.7838 -26.58122,-191.706 -1.42838,-39.4507 -1.67596,-120.9647 -1.45114,-477.7704 0.16145,-256.2384 0.41117,-371.6315 0.83443,-385.5878 4.03548,-133.0627 14.45033,-200.8155 39.80624,-258.9554 22.87778,-52.4577 63.32922,-104.9173 108.81811,-141.1212 12.25925,-9.757 31.66981,-22.9097 46.90669,-31.7844 24.79601,-14.4423 54.99637,-27.5472 78.82329,-34.2039 41.36425,-11.5562 93.35603,-18.869 158.31851,-22.2681 28.5354,-1.493 42.80966,-1.8693 92.94472,-2.45 66.71195,-0.7727 774.97059,-0.3507 803.30789,0.4786 74.58713,2.1828 111.22328,5.1416 152.96045,12.3533 34.90069,6.0305 66.10255,14.5431 92.14805,25.1403 28.90007,11.7586 67.93807,35.6951 94.27249,57.8041 24.08118,20.2172 52.39634,51.696 69.50417,77.2697 27.40876,40.9722 44.92544,81.5642 54.48975,126.2709 2.0427,9.5481 7.5352,40.5742 9.5433,53.9079 4.7447,31.5043 7.3924,66.4897 8.9033,117.6415 0.8272,28.0023 1.2273,742.0895 0.4567,814.9924 -0.6825,64.5731 -1.8558,98.6886 -4.564,132.7029 -5.9213,74.3703 -21.87168,136.2374 -47.80384,185.4176 -7.83137,14.852 -18.80155,31.9295 -30.54535,47.5505 -23.00313,30.5976 -46.50391,54.389 -74.58963,75.5123 -48.63111,36.5753 -94.65909,56.7768 -158.32303,69.4872 -51.86283,10.3544 -93.05381,13.1537 -222.7503,15.1381 -27.97184,0.4279 -676.86617,0.5685 -740.10549,0.1603 z"
         id="path3118"
         inkscape:connector-curvature="0" />
      <path
         style="fill:#ffffff;fill-opacity:1"
         d="m -255.18484,3598.5738 c -65.89075,-0.4253 -133.31625,-3.6429 -171.28383,-8.1738 -35.62761,-4.2516 -75.24646,-12.6237 -101.97363,-21.5486 -19.91256,-6.6493 -47.54459,-19.4411 -66.12352,-30.6108 -37.44793,-22.5137 -72.20796,-52.2487 -98.54251,-84.2969 -24.29731,-29.5689 -41.20817,-56.8511 -55.47181,-89.4924 -6.61929,-15.1478 -8.38704,-19.8689 -11.92879,-31.8579 -16.20259,-54.8465 -23.54268,-107.7838 -26.58122,-191.706 -1.42838,-39.4507 -1.67596,-120.9647 -1.45114,-477.7704 0.16145,-256.2384 0.41117,-371.6315 0.83443,-385.5878 4.03548,-133.0627 14.45033,-200.8155 39.80624,-258.9554 22.87778,-52.4577 63.32922,-104.9173 108.81811,-141.1212 12.25925,-9.757 31.66981,-22.9097 46.90669,-31.7844 24.79601,-14.4423 54.99637,-27.5472 78.82329,-34.2039 41.36425,-11.5562 93.35603,-18.869 158.31851,-22.2681 28.5354,-1.493 42.80966,-1.8693 92.94472,-2.45 66.71195,-0.7727 774.97059,-0.3507 803.30789,0.4786 74.58713,2.1828 111.22328,5.1416 152.96045,12.3533 34.90069,6.0305 66.10255,14.5431 92.14805,25.1403 28.90007,11.7586 67.93807,35.6951 94.27249,57.8041 24.08118,20.2172 52.39634,51.696 69.50417,77.2697 27.40876,40.9722 44.92544,81.5642 54.48975,126.2709 2.0427,9.5481 7.5352,40.5742 9.5433,53.9079 4.7447,31.5043 7.3924,66.4897 8.9033,117.6415 0.8272,28.0023 1.2273,742.0895 0.4567,814.9924 -0.6825,64.5731 -1.8558,98.6886 -4.564,132.7029 -5.9213,74.3703 -21.87168,136.2374 -47.80384,185.4176 -7.83137,14.852 -18.80155,31.9295 -30.54535,47.5505 -23.00313,30.5976 -46.50391,54.389 -74.58963,75.5123 -48.63111,36.5753 -94.65909,56.7768 -158.32303,69.4872 -51.86283,10.3544 -93.05381,13.1537 -222.7503,15.1381 -27.97184,0.4279 -676.86617,0.5685 -740.10549,0.1603 z"
         id="path3116"
         inkscape:connector-curvature="0" />
      <path
         style="fill:#ffffff;fill-opacity:1"
         d="m -255.18484,3598.5738 c -65.89075,-0.4253 -133.31625,-3.6429 -171.28383,-8.1738 -35.62761,-4.2516 -75.24646,-12.6237 -101.97363,-21.5486 -19.91256,-6.6493 -47.54459,-19.4411 -66.12352,-30.6108 -37.44793,-22.5137 -72.20796,-52.2487 -98.54251,-84.2969 -24.29731,-29.5689 -41.20817,-56.8511 -55.47181,-89.4924 -6.61929,-15.1478 -8.38704,-19.8689 -11.92879,-31.8579 -16.20259,-54.8465 -23.54268,-107.7838 -26.58122,-191.706 -1.42838,-39.4507 -1.67596,-120.9647 -1.45114,-477.7704 0.16145,-256.2384 0.41117,-371.6315 0.83443,-385.5878 4.03548,-133.0627 14.45033,-200.8155 39.80624,-258.9554 22.87778,-52.4577 63.32922,-104.9173 108.81811,-141.1212 12.25925,-9.757 31.66981,-22.9097 46.90669,-31.7844 24.79601,-14.4423 54.99637,-27.5472 78.82329,-34.2039 41.36425,-11.5562 93.35603,-18.869 158.31851,-22.2681 28.5354,-1.493 42.80966,-1.8693 92.94472,-2.45 66.71195,-0.7727 774.97059,-0.3507 803.30789,0.4786 74.58713,2.1828 111.22328,5.1416 152.96045,12.3533 34.90069,6.0305 66.10255,14.5431 92.14805,25.1403 28.90007,11.7586 67.93807,35.6951 94.27249,57.8041 24.08118,20.2172 52.39634,51.696 69.50417,77.2697 27.40876,40.9722 44.92544,81.5642 54.48975,126.2709 2.0427,9.5481 7.5352,40.5742 9.5433,53.9079 4.7447,31.5043 7.3924,66.4897 8.9033,117.6415 0.8272,28.0023 1.2273,742.0895 0.4567,814.9924 -0.6825,64.5731 -1.8558,98.6886 -4.564,132.7029 -5.9213,74.3703 -21.87168,136.2374 -47.80384,185.4176 -7.83137,14.852 -18.80155,31.9295 -30.54535,47.5505 -23.00313,30.5976 -46.50391,54.389 -74.58963,75.5123 -48.63111,36.5753 -94.65909,56.7768 -158.32303,69.4872 -51.86283,10.3544 -93.05381,13.1537 -222.7503,15.1381 -27.97184,0.4279 -676.86617,0.5685 -740.10549,0.1603 z"
         id="path3114"
         inkscape:connector-curvature="0" />
      <path
         style="fill:#ffffff;fill-opacity:1"
         d="m -255.18484,3598.5738 c -65.89075,-0.4253 -133.31625,-3.6429 -171.28383,-8.1738 -35.62761,-4.2516 -75.24646,-12.6237 -101.97363,-21.5486 -19.91256,-6.6493 -47.54459,-19.4411 -66.12352,-30.6108 -37.44793,-22.5137 -72.20796,-52.2487 -98.54251,-84.2969 -24.29731,-29.5689 -41.20817,-56.8511 -55.47181,-89.4924 -6.61929,-15.1478 -8.38704,-19.8689 -11.92879,-31.8579 -16.20259,-54.8465 -23.54268,-107.7838 -26.58122,-191.706 -1.42838,-39.4507 -1.67596,-120.9647 -1.45114,-477.7704 0.16145,-256.2384 0.41117,-371.6315 0.83443,-385.5878 4.03548,-133.0627 14.45033,-200.8155 39.80624,-258.9554 22.87778,-52.4577 63.32922,-104.9173 108.81811,-141.1212 12.25925,-9.757 31.66981,-22.9097 46.90669,-31.7844 24.79601,-14.4423 54.99637,-27.5472 78.82329,-34.2039 41.36425,-11.5562 93.35603,-18.869 158.31851,-22.2681 28.5354,-1.493 42.80966,-1.8693 92.94472,-2.45 66.71195,-0.7727 774.97059,-0.3507 803.30789,0.4786 74.58713,2.1828 111.22328,5.1416 152.96045,12.3533 34.90069,6.0305 66.10255,14.5431 92.14805,25.1403 28.90007,11.7586 67.93807,35.6951 94.27249,57.8041 24.08118,20.2172 52.39634,51.696 69.50417,77.2697 27.40876,40.9722 44.92544,81.5642 54.48975,126.2709 2.0427,9.5481 7.5352,40.5742 9.5433,53.9079 4.7447,31.5043 7.3924,66.4897 8.9033,117.6415 0.8272,28.0023 1.2273,742.0895 0.4567,814.9924 -0.6825,64.5731 -1.8558,98.6886 -4.564,132.7029 -5.9213,74.3703 -21.87168,136.2374 -47.80384,185.4176 -7.83137,14.852 -18.80155,31.9295 -30.54535,47.5505 -23.00313,30.5976 -46.50391,54.389 -74.58963,75.5123 -48.63111,36.5753 -94.65909,56.7768 -158.32303,69.4872 -51.86283,10.3544 -93.05381,13.1537 -222.7503,15.1381 -27.97184,0.4279 -676.86617,0.5685 -740.10549,0.1603 z"
         id="path3112"
         inkscape:connector-curvature="0" />
      <path
         style="fill:#ffffff;fill-opacity:1"
         d="m -255.18484,3598.5738 c -65.89075,-0.4253 -133.31625,-3.6429 -171.28383,-8.1738 -35.62761,-4.2516 -75.24646,-12.6237 -101.97363,-21.5486 -19.91256,-6.6493 -47.54459,-19.4411 -66.12352,-30.6108 -37.44793,-22.5137 -72.20796,-52.2487 -98.54251,-84.2969 -24.29731,-29.5689 -41.20817,-56.8511 -55.47181,-89.4924 -6.61929,-15.1478 -8.38704,-19.8689 -11.92879,-31.8579 -16.20259,-54.8465 -23.54268,-107.7838 -26.58122,-191.706 -1.42838,-39.4507 -1.67596,-120.9647 -1.45114,-477.7704 0.16145,-256.2384 0.41117,-371.6315 0.83443,-385.5878 4.03548,-133.0627 14.45033,-200.8155 39.80624,-258.9554 22.87778,-52.4577 63.32922,-104.9173 108.81811,-141.1212 12.25925,-9.757 31.66981,-22.9097 46.90669,-31.7844 24.79601,-14.4423 54.99637,-27.5472 78.82329,-34.2039 41.36425,-11.5562 93.35603,-18.869 158.31851,-22.2681 28.5354,-1.493 42.80966,-1.8693 92.94472,-2.45 66.71195,-0.7727 774.97059,-0.3507 803.30789,0.4786 74.58713,2.1828 111.22328,5.1416 152.96045,12.3533 34.90069,6.0305 66.10255,14.5431 92.14805,25.1403 28.90007,11.7586 67.93807,35.6951 94.27249,57.8041 24.08118,20.2172 52.39634,51.696 69.50417,77.2697 27.40876,40.9722 44.92544,81.5642 54.48975,126.2709 2.0427,9.5481 7.5352,40.5742 9.5433,53.9079 4.7447,31.5043 7.3924,66.4897 8.9033,117.6415 0.8272,28.0023 1.2273,742.0895 0.4567,814.9924 -0.6825,64.5731 -1.8558,98.6886 -4.564,132.7029 -5.9213,74.3703 -21.87168,136.2374 -47.80384,185.4176 -7.83137,14.852 -18.80155,31.9295 -30.54535,47.5505 -23.00313,30.5976 -46.50391,54.389 -74.58963,75.5123 -48.63111,36.5753 -94.65909,56.7768 -158.32303,69.4872 -51.86283,10.3544 -93.05381,13.1537 -222.7503,15.1381 -27.97184,0.4279 -676.86617,0.5685 -740.10549,0.1603 z"
         id="path3110"
         inkscape:connector-curvature="0" />
    </g>
  </g>
  <g
     inkscape:groupmode="layer"
     id="layer2"
     inkscape:label="GUIDES"
     style="display:none"
     transform="translate(0,-2.2054443)"
     sodipodi:insensitive="true">
    <path
       style="color:#000000;display:inline;overflow:visible;visibility:visible;fill:none;stroke:#000000;stroke-width:2;stroke-linecap:butt;stroke-linejoin:miter;stroke-miterlimit:4;stroke-dasharray:none;stroke-dashoffset:0;stroke-opacity:1;marker:none;enable-background:accumulate"
       d="m 0.99801512,321.03518 0,386.27669"
       id="path4024"
       inkscape:connector-curvature="0" />
    <circle
       style="color:#000000;display:inline;overflow:visible;visibility:visible;fill:none;stroke:#000000;stroke-width:1.00571477;stroke-linecap:butt;stroke-linejoin:miter;stroke-miterlimit:4;stroke-dasharray:none;stroke-dashoffset:0;stroke-opacity:1;marker:none;enable-background:accumulate"
       id="path3129"
       transform="matrix(1.988799,0,0,1.988471,-407.91018,-80.585593)"
       cx="462.32144"
       cy="298.86218"
       r="138" />
    <circle
       style="color:#000000;display:inline;overflow:visible;visibility:visible;fill:none;stroke:#000000;stroke-width:0.62086099;stroke-linecap:butt;stroke-linejoin:miter;stroke-miterlimit:4;stroke-dasharray:none;stroke-dashoffset:0;stroke-opacity:1;marker:none;enable-background:accumulate"
       id="path3129-9"
       transform="matrix(3.2215081,0,0,3.2211587,-977.38931,-448.55899)"
       cx="462.32144"
       cy="298.86218"
       r="138" />
    <path
       style="color:#000000;display:inline;overflow:visible;visibility:visible;fill:none;stroke:#000000;stroke-width:2;stroke-linecap:butt;stroke-linejoin:miter;stroke-miterlimit:4;stroke-dasharray:none;stroke-dashoffset:0;stroke-opacity:1;marker:none;enable-background:accumulate"
       d="M 67.351921,69.489974 956.5625,958.70544"
       id="path4011"
       inkscape:connector-curvature="0"
       sodipodi:nodetypes="cc" />
    <path
       style="color:#000000;display:inline;overflow:visible;visibility:visible;fill:none;stroke:#000000;stroke-width:2;stroke-linecap:butt;stroke-linejoin:miter;stroke-miterlimit:4;stroke-dasharray:none;stroke-dashoffset:0;stroke-opacity:1;marker:none;enable-background:accumulate"
       d="m 0.99801467,707.31189 1022.00298533,0"
       id="path4028"
       inkscape:connector-curvature="0" />
    <path
       style="color:#000000;display:inline;overflow:visible;visibility:visible;fill:none;stroke:#000000;stroke-width:2;stroke-linecap:butt;stroke-linejoin:miter;stroke-miterlimit:4;stroke-dasharray:none;stroke-dashoffset:0;stroke-opacity:1;marker:none;enable-background:accumulate"
       d="m 0.99801467,513.69318 1022.00298533,0"
       id="path4030"
       inkscape:connector-curvature="0" />
    <path
       style="color:#000000;display:inline;overflow:visible;visibility:visible;fill:none;stroke:#000000;stroke-width:2;stroke-linecap:butt;stroke-linejoin:miter;stroke-miterlimit:4;stroke-dasharray:none;stroke-dashoffset:0;stroke-opacity:1;marker:none;enable-background:accumulate"
       d="m 0.99801467,321.0352 1022.00298533,0"
       id="path4032"
       inkscape:connector-curvature="0" />
    <path
       style="color:#000000;display:inline;overflow:visible;visibility:visible;fill:none;stroke:#000000;stroke-width:2;stroke-linecap:butt;stroke-linejoin:miter;stroke-miterlimit:4;stroke-dasharray:none;stroke-dashoffset:0;stroke-opacity:1;marker:none;enable-background:accumulate"
       d="m 319.08193,1026.2054 0,-1023.9999557"
       id="path4034"
       inkscape:connector-curvature="0"
       sodipodi:nodetypes="cc" />
    <path
       style="color:#000000;display:inline;overflow:visible;visibility:visible;fill:none;stroke:#000000;stroke-width:2;stroke-linecap:butt;stroke-linejoin:miter;stroke-miterlimit:4;stroke-dasharray:none;stroke-dashoffset:0;stroke-opacity:1;marker:none;enable-background:accumulate"
       d="m 511.68014,2.2054443 0,1023.9999557"
       id="path4036"
       inkscape:connector-curvature="0"
       sodipodi:nodetypes="cc" />
    <path
       style="color:#000000;display:inline;overflow:visible;visibility:visible;fill:none;stroke:#000000;stroke-width:2;stroke-linecap:butt;stroke-linejoin:miter;stroke-miterlimit:4;stroke-dasharray:none;stroke-dashoffset:0;stroke-opacity:1;marker:none;enable-background:accumulate"
       d="m 706.1875,1026.2054 0,-1023.9999557"
       id="path4038"
       inkscape:connector-curvature="0"
       sodipodi:nodetypes="cc" />
    <path
       style="color:#000000;display:inline;overflow:visible;visibility:visible;fill:none;stroke:#000000;stroke-width:2;stroke-linecap:butt;stroke-linejoin:miter;stroke-miterlimit:4;stroke-dasharray:none;stroke-dashoffset:0;stroke-opacity:1;marker:none;enable-background:accumulate"
       d="M 67.351921,958.70544 956.5625,69.489974"
       id="path4001"
       inkscape:connector-curvature="0"
       sodipodi:nodetypes="cc" />
    <path
       style="color:#000000;display:inline;overflow:visible;visibility:visible;fill:none;stroke:#000000;stroke-width:2;stroke-linecap:butt;stroke-linejoin:miter;stroke-miterlimit:4;stroke-dasharray:none;stroke-dashoffset:0;stroke-opacity:1;marker:none;enable-background:accumulate"
       d="m 956.5625,69.489974 0,889.215466"
       id="path4003"
       inkscape:connector-curvature="0"
       sodipodi:nodetypes="cc" />
    <path
       style="color:#000000;display:inline;overflow:visible;visibility:visible;fill:none;stroke:#000000;stroke-width:2;stroke-linecap:butt;stroke-linejoin:miter;stroke-miterlimit:4;stroke-dasharray:none;stroke-dashoffset:0;stroke-opacity:1;marker:none;enable-background:accumulate"
       d="m 67.351921,69.489974 889.210579,0"
       id="path4009"
       inkscape:connector-curvature="0"
       sodipodi:nodetypes="cc" />
    <path
       style="color:#000000;display:inline;overflow:visible;visibility:visible;fill:none;stroke:#000000;stroke-width:2;stroke-linecap:butt;stroke-linejoin:miter;stroke-miterlimit:4;stroke-dasharray:none;stroke-dashoffset:0;stroke-opacity:1;marker:none;enable-background:accumulate"
       d="m 67.351921,958.70544 0,-889.215466"
       id="path4007"
       inkscape:connector-curvature="0"
       sodipodi:nodetypes="cc" />
    <path
       style="color:#000000;display:inline;overflow:visible;visibility:visible;fill:none;stroke:#000000;stroke-width:2;stroke-linecap:butt;stroke-linejoin:miter;stroke-miterlimit:4;stroke-dasharray:none;stroke-dashoffset:0;stroke-opacity:1;marker:none;enable-background:accumulate"
       d="m 956.5625,958.70544 -889.210579,-3e-5"
       id="path4005"
       inkscape:connector-curvature="0"
       sodipodi:nodetypes="cc" />
    <circle
       style="color:#000000;display:inline;overflow:visible;visibility:visible;fill:none;stroke:#000000;stroke-width:1.42908275;stroke-linecap:butt;stroke-linejoin:miter;stroke-miterlimit:4;stroke-dasharray:none;stroke-dashoffset:0;stroke-opacity:1;marker:none;enable-background:accumulate"
       id="path3129-7"
       transform="matrix(1.4025564,0,0,1.3964479,-135.79717,96.569794)"
       cx="462.32144"
       cy="298.86218"
       r="138" />
  </g>
</svg>
